<svg width="35" height="35" viewBox="0 0 35 35" fill="none" xmlns="http://www.w3.org/2000/svg">
<g clip-path="url(#clip0_8_223)">
<path d="M10.6358 3.04935L8.39001 5.29664L3.73355 0.64018C3.32098 0.241709 2.76841 0.0212217 2.19486 0.0262057C1.6213 0.0311898 1.07265 0.261247 0.667071 0.666827C0.261491 1.07241 0.0314339 1.62106 0.0264499 2.19462C0.0214658 2.76817 0.241954 3.32074 0.640424 3.73331L5.29688 8.38976L3.04959 10.6356C2.84553 10.8397 2.70662 11.0998 2.65047 11.3829C2.59432 11.6661 2.62344 11.9595 2.73416 12.226C2.84487 12.4926 3.0322 12.7203 3.27241 12.8803C3.51262 13.0403 3.79492 13.1255 4.08355 13.125H11.031C11.5865 13.125 12.1191 12.9043 12.5119 12.5116C12.9046 12.1189 13.1252 11.5862 13.1252 11.0308V4.08331C13.1257 3.79467 13.0406 3.51237 12.8806 3.27216C12.7205 3.03195 12.4928 2.84463 12.2263 2.73391C11.9597 2.6232 11.6663 2.59408 11.3832 2.65023C11.1001 2.70638 10.84 2.84528 10.6358 3.04935Z" fill="currentColor"/>
<path d="M24.3644 31.9506L26.6102 29.7033L31.2667 34.3598C31.4685 34.5687 31.7098 34.7354 31.9767 34.85C32.2436 34.9647 32.5306 35.025 32.8211 35.0275C33.1116 35.0301 33.3996 34.9747 33.6684 34.8647C33.9373 34.7547 34.1815 34.5923 34.3869 34.3869C34.5923 34.1815 34.7547 33.9373 34.8647 33.6684C34.9747 33.3996 35.0301 33.1116 35.0275 32.8211C35.025 32.5306 34.9647 32.2436 34.85 31.9767C34.7354 31.7098 34.5687 31.4685 34.3598 31.2667L29.7033 26.6102L31.9506 24.3644C32.1547 24.1603 32.2936 23.9002 32.3497 23.617C32.4059 23.3339 32.3768 23.0405 32.2661 22.7739C32.1553 22.5074 31.968 22.2797 31.7278 22.1197C31.4876 21.9596 31.2053 21.8745 30.9167 21.875H23.9692C23.4138 21.875 22.8811 22.0956 22.4884 22.4884C22.0956 22.8811 21.875 23.4138 21.875 23.9692V30.9167C21.8745 31.2053 21.9596 31.4876 22.1197 31.7278C22.2797 31.968 22.5074 32.1553 22.7739 32.2661C23.0405 32.3768 23.3339 32.4059 23.617 32.3497C23.9002 32.2936 24.1603 32.1547 24.3644 31.9506Z" fill="currentColor"/>
<path d="M3.04915 24.3644L5.29644 26.6102L0.639986 31.2667C0.431057 31.4685 0.264409 31.7098 0.149764 31.9767C0.0351194 32.2436 -0.0252255 32.5306 -0.0277494 32.8211C-0.0302734 33.1116 0.0250741 33.3996 0.135064 33.6684C0.245053 33.9373 0.407482 34.1815 0.612872 34.3869C0.818262 34.5923 1.0625 34.7547 1.33134 34.8647C1.60017 34.9747 1.88822 35.0301 2.17868 35.0275C2.46913 35.025 2.75617 34.9647 3.02306 34.85C3.28994 34.7354 3.53132 34.5687 3.73311 34.3598L8.38957 29.7033L10.6354 31.9506C10.8395 32.1547 11.0996 32.2936 11.3827 32.3497C11.6659 32.4059 11.9593 32.3768 12.2258 32.2661C12.4924 32.1553 12.7201 31.968 12.8801 31.7278C13.0401 31.4876 13.1253 31.2053 13.1248 30.9167V23.9692C13.1248 23.4138 12.9041 22.8811 12.5114 22.4884C12.1187 22.0956 11.586 21.875 11.0306 21.875H4.08311C3.79448 21.8745 3.51218 21.9596 3.27197 22.1197C3.03176 22.2797 2.84443 22.5074 2.73372 22.7739C2.62301 23.0405 2.59388 23.3339 2.65003 23.617C2.70618 23.9002 2.84509 24.1603 3.04915 24.3644Z" fill="currentColor"/>
<path d="M31.9506 10.6356L29.7033 8.38981L34.3598 3.73336C34.5687 3.53157 34.7354 3.29019 34.85 3.0233C34.9647 2.75642 35.025 2.46937 35.0275 2.17892C35.0301 1.88847 34.9747 1.60042 34.8647 1.33158C34.7547 1.06274 34.5923 0.818506 34.3869 0.613116C34.1815 0.407726 33.9373 0.245297 33.6684 0.135308C33.3996 0.0253182 33.1116 -0.0300293 32.8211 -0.0275053C32.5306 -0.0249813 32.2436 0.0353636 31.9767 0.150008C31.7098 0.264653 31.4685 0.431302 31.2667 0.64023L26.6102 5.29669L24.3644 3.0494C24.1603 2.84533 23.9002 2.70643 23.617 2.65028C23.3339 2.59413 23.0405 2.62325 22.7739 2.73396C22.5074 2.84468 22.2797 3.032 22.1197 3.27221C21.9596 3.51242 21.8745 3.79472 21.875 4.08335V11.0309C21.875 11.5863 22.0956 12.1189 22.4884 12.5117C22.8811 12.9044 23.4138 13.125 23.9692 13.125H30.9167C31.2053 13.1255 31.4876 13.0404 31.7278 12.8804C31.968 12.7203 32.1553 12.4926 32.2661 12.2261C32.3768 11.9595 32.4059 11.6661 32.3497 11.383C32.2936 11.0999 32.1547 10.8398 31.9506 10.6356Z" fill="currentColor"/>
</g>
<defs>
<clipPath id="clip0_8_223">
<rect width="35" height="35" fill="currentColor"/>
</clipPath>
</defs>
</svg>
