<svg width="17" height="17" viewBox="0 0 17 17" fill="none" xmlns="http://www.w3.org/2000/svg">
<path d="M14.6625 3.35325L15.7923 4.48233C15.8913 4.5808 16.0173 4.64778 16.1543 4.67487C16.2913 4.70196 16.4333 4.68793 16.5623 4.63457C16.6914 4.5812 16.8018 4.49087 16.8797 4.37493C16.9576 4.25899 16.9994 4.12262 17 3.98296V0.724625C17 0.536763 16.9254 0.356596 16.7925 0.223758C16.6597 0.0909194 16.4795 0.0162917 16.2917 0.0162917H13.0284C12.8886 0.0165999 12.752 0.0582593 12.6359 0.136024C12.5197 0.213789 12.4292 0.324183 12.3756 0.453305C12.3221 0.582427 12.308 0.724504 12.335 0.861647C12.362 0.998789 12.429 1.12487 12.5276 1.224L13.6609 2.35379L8.50001 7.50621L3.33555 2.34458L4.47242 1.21125C4.5717 1.11223 4.63935 0.985965 4.66681 0.848461C4.69427 0.710957 4.6803 0.568397 4.62667 0.438838C4.57304 0.30928 4.48217 0.198553 4.36556 0.120684C4.24895 0.0428146 4.11185 0.00130619 3.97163 0.00141667L0.708341 0C0.52048 0 0.340312 0.0746278 0.207474 0.207466C0.0746359 0.340304 8.17431e-06 0.520472 8.17431e-06 0.708333V3.96667C-0.000666892 4.10721 0.0404844 4.24478 0.118226 4.36187C0.195968 4.47896 0.306785 4.57028 0.436577 4.6242C0.566369 4.67812 0.709269 4.69221 0.847094 4.66468C0.984918 4.63715 1.11144 4.56923 1.21055 4.46958L2.33751 3.34617L7.49913 8.50708L2.34105 13.6609L1.20772 12.5311C1.10862 12.4326 0.982613 12.3656 0.845537 12.3386C0.70846 12.3115 0.566441 12.3256 0.437347 12.379C0.308254 12.4325 0.197853 12.5229 0.120034 12.639C0.0422156 12.755 0.000455596 12.8915 8.17431e-06 13.0312V16.2895C8.17431e-06 16.4774 0.0746359 16.6576 0.207474 16.7904C0.340312 16.9232 0.52048 16.9979 0.708341 16.9979H3.97163C4.11069 16.9969 4.24639 16.955 4.3618 16.8774C4.4772 16.7998 4.56722 16.69 4.62062 16.5616C4.67402 16.4332 4.68844 16.2919 4.66209 16.1553C4.63574 16.0188 4.56977 15.893 4.47242 15.7937L3.34263 14.6618L8.50001 9.50796L13.6581 14.6611L12.5248 15.7944C12.4274 15.8937 12.3614 16.0195 12.3351 16.156C12.3087 16.2926 12.3232 16.4339 12.3766 16.5623C12.43 16.6907 12.52 16.8005 12.6354 16.8781C12.7508 16.9557 12.8865 16.9976 13.0255 16.9986H16.2874C16.4753 16.9986 16.6555 16.924 16.7883 16.7911C16.9211 16.6583 16.9958 16.4781 16.9958 16.2903V13.0319C16.9957 12.8918 16.9542 12.7549 16.8763 12.6385C16.7985 12.522 16.6879 12.4312 16.5585 12.3776C16.4291 12.324 16.2867 12.31 16.1493 12.3373C16.0119 12.3647 15.8857 12.4321 15.7866 12.5311L14.6625 13.6602L9.50159 8.50708L14.6625 3.35325Z" fill="currentColor"/>
</svg>
