<svg width="120" height="120" viewBox="0 0 120 120" fill="none" xmlns="http://www.w3.org/2000/svg">
<g clip-path="url(#clip0_7_75)">
<path d="M31.3313 90.6939C25.8721 85.5926 21.8726 79.1274 19.7452 71.9649C17.6178 64.8025 17.4396 57.2022 19.229 49.948C21.0184 42.6937 24.7105 36.0481 29.9247 30.6966C35.1388 25.3451 41.6862 21.4814 48.8915 19.504C56.0967 17.5266 63.6991 17.5071 70.9144 19.4476C78.1297 21.388 84.6968 25.2181 89.9383 30.5428C95.1798 35.8676 98.9059 42.4941 100.732 49.7391C102.559 56.9841 102.42 64.5852 100.329 71.7584C100.212 72.2121 100.004 72.6376 99.719 73.0096C99.4339 73.3816 99.0769 73.6925 98.6694 73.9239C98.2619 74.1554 97.812 74.3026 97.3465 74.3569C96.8809 74.4112 96.4093 74.3714 95.9594 74.24C95.5095 74.1085 95.0906 73.888 94.7276 73.5916C94.3645 73.2952 94.0647 72.9289 93.8459 72.5145C93.6271 72.1 93.4938 71.6458 93.4538 71.1789C93.4138 70.7119 93.4681 70.2416 93.6133 69.796C95.8152 62.2417 95.4072 54.1658 92.4553 46.8718C89.5033 39.5778 84.1796 33.4913 77.3435 29.5947C70.5073 25.6982 62.5575 24.2189 54.7773 25.3956C46.9971 26.5724 39.8404 30.3365 34.4624 36.0804C29.0843 41.8244 25.7987 49.213 25.1359 57.0538C24.4731 64.8945 26.4717 72.7298 30.8092 79.2951C35.1466 85.8604 41.5699 90.7725 49.0421 93.2386C56.5144 95.7048 64.5997 95.581 71.9929 92.8874C72.8574 92.6027 73.7988 92.6659 74.6174 93.0637C75.436 93.4615 76.0675 94.1625 76.3779 95.0181C76.6883 95.8737 76.6532 96.8165 76.2801 97.6466C75.9069 98.4768 75.2251 99.1289 74.3792 99.4648C67.0961 102.137 59.2134 102.732 51.6116 101.183C44.0098 99.6346 36.9883 96.0029 31.3313 90.6939Z" fill="#6F98B6"/>
</g>
<defs>
<clipPath id="clip0_7_75">
<rect width="84" height="84" fill="white" transform="translate(57.9746 0.637573) rotate(43.0459)"/>
</clipPath>
</defs>
</svg>
