<svg width="20" height="20" viewBox="0 0 20 20" fill="none" xmlns="http://www.w3.org/2000/svg">
<g clip-path="url(#clip0_7_36)">
<path d="M10 0C8.02219 0 6.08879 0.58649 4.4443 1.6853C2.79981 2.78412 1.51809 4.3459 0.761209 6.17317C0.00433286 8.00043 -0.193701 10.0111 0.192152 11.9509C0.578004 13.8907 1.53041 15.6725 2.92894 17.0711C4.32746 18.4696 6.10929 19.422 8.0491 19.8079C9.98891 20.1937 11.9996 19.9957 13.8268 19.2388C15.6541 18.4819 17.2159 17.2002 18.3147 15.5557C19.4135 13.9112 20 11.9778 20 10C19.9971 7.34872 18.9426 4.80684 17.0679 2.9321C15.1932 1.05736 12.6513 0.00286757 10 0ZM10 18.3333C8.35183 18.3333 6.74066 17.8446 5.37025 16.9289C3.99984 16.0132 2.93174 14.7117 2.30101 13.189C1.67028 11.6663 1.50525 9.99076 1.82679 8.37425C2.14834 6.75774 2.94201 5.27288 4.10745 4.10744C5.27289 2.94201 6.75774 2.14833 8.37425 1.82679C9.99076 1.50525 11.6663 1.67027 13.189 2.301C14.7118 2.93173 16.0132 3.99984 16.9289 5.37025C17.8446 6.74066 18.3333 8.35182 18.3333 10C18.3309 12.2094 17.4522 14.3276 15.8899 15.8899C14.3276 17.4522 12.2094 18.3309 10 18.3333Z" fill="#6F98B6"/>
<path d="M10.5973 4.21915C10.1168 4.13159 9.62285 4.15072 9.1505 4.27518C8.67815 4.39965 8.23893 4.6264 7.86392 4.9394C7.4889 5.2524 7.18726 5.644 6.98035 6.08648C6.77343 6.52896 6.66629 7.01151 6.6665 7.49998C6.6665 7.721 6.7543 7.93296 6.91058 8.08924C7.06686 8.24552 7.27882 8.33332 7.49984 8.33332C7.72085 8.33332 7.93281 8.24552 8.08909 8.08924C8.24537 7.93296 8.33317 7.721 8.33317 7.49998C8.33296 7.2548 8.38685 7.01258 8.491 6.79061C8.59514 6.56865 8.74698 6.37239 8.93569 6.21584C9.12439 6.05929 9.34531 5.9463 9.58269 5.88494C9.82007 5.82357 10.0681 5.81533 10.309 5.86082C10.6382 5.92472 10.9409 6.0853 11.1784 6.32206C11.4159 6.55881 11.5774 6.86098 11.6423 7.18998C11.7079 7.53532 11.6626 7.89255 11.513 8.2106C11.3633 8.52865 11.1169 8.79123 10.809 8.96082C10.2991 9.2562 9.87783 9.68291 9.58894 10.1965C9.30006 10.7101 9.15418 11.2917 9.1665 11.8808V12.5C9.1665 12.721 9.2543 12.933 9.41058 13.0892C9.56686 13.2455 9.77882 13.3333 9.99984 13.3333C10.2209 13.3333 10.4328 13.2455 10.5891 13.0892C10.7454 12.933 10.8332 12.721 10.8332 12.5V11.8808C10.8227 11.5908 10.8888 11.3032 11.0249 11.0469C11.1609 10.7906 11.3621 10.5746 11.6082 10.4208C12.2119 10.0892 12.6981 9.5787 12.9999 8.95949C13.3017 8.34028 13.4042 7.64278 13.2934 6.96292C13.1826 6.28306 12.8639 5.65423 12.3811 5.16289C11.8983 4.67156 11.2752 4.34187 10.5973 4.21915Z" fill="#6F98B6"/>
<path d="M10.8332 15C10.8332 14.5397 10.4601 14.1666 9.99984 14.1666C9.5396 14.1666 9.1665 14.5397 9.1665 15C9.1665 15.4602 9.5396 15.8333 9.99984 15.8333C10.4601 15.8333 10.8332 15.4602 10.8332 15Z" fill="#6F98B6"/>
</g>
<defs>
<clipPath id="clip0_7_36">
<rect width="20" height="20" fill="white"/>
</clipPath>
</defs>
</svg>
